<svg width="3788" height="2131" viewBox="0 0 3788 2131" fill="none" xmlns="http://www.w3.org/2000/svg">
<g clip-path="url(#clip0_44_11260)">
<path d="M3788 0H0V2131H3788V0Z" fill="white"/>
<path fill-rule="evenodd" clip-rule="evenodd" d="M2569.81 1234L2603.74 1843.38C2603.74 1843.38 2683.12 1838.07 2734.51 1860.05C2785.9 1882.02 2464.15 1939.35 2445.8 1916.7C2427.46 1894.06 2566.92 1845.66 2566.92 1845.66L2533.87 1234.46C2528.59 1234.11 2525.97 1234.29 2524.04 1233.23C2522.11 1232.18 2513.5 1154.31 2513.5 1154.31C2560.39 1143.22 2575.89 1151.7 2575.89 1151.7C2575.89 1151.7 2580.25 1222.2 2580.06 1229.76C2580.01 1231.88 2575.84 1233.21 2569.81 1234Z" fill="#383046"/>
<path fill-rule="evenodd" clip-rule="evenodd" d="M2429.29 1153.42L2398.05 648.857C2398.05 648.857 2394.09 622.566 2455.26 617.279C2516.43 611.992 2615.8 593.838 2625.12 623.264C2634.45 652.69 2652.37 1136.12 2652.37 1136.12C2652.37 1136.12 2656.55 1163.33 2614.49 1168.89C2572.43 1174.45 2427.62 1209.06 2429.29 1153.42Z" fill="#383046"/>
<path fill-rule="evenodd" clip-rule="evenodd" d="M2515.35 646.225C2553.73 643.849 2586.76 673.034 2589.14 711.413C2591.51 749.793 2562.33 782.829 2523.95 785.206C2485.58 787.583 2452.55 758.397 2450.17 720.016C2447.79 681.64 2476.98 648.602 2515.35 646.225Z" fill="#C50A00"/>
<path fill-rule="evenodd" clip-rule="evenodd" d="M2526.12 820.163C2564.49 817.787 2597.52 846.973 2599.9 885.353C2602.28 923.731 2573.09 956.77 2534.72 959.146C2496.35 961.523 2463.31 932.337 2460.94 893.959C2458.56 855.576 2487.74 822.538 2526.12 820.163Z" fill="#FFC100"/>
<path fill-rule="evenodd" clip-rule="evenodd" d="M2536.88 994.102C2575.26 991.725 2608.29 1020.91 2610.67 1059.29C2613.04 1097.67 2583.86 1130.71 2545.49 1133.08C2507.11 1135.46 2474.08 1106.28 2471.7 1067.89C2469.33 1029.51 2498.51 996.476 2536.88 994.102Z" fill="#97B500"/>
<path fill-rule="evenodd" clip-rule="evenodd" d="M2588.65 614.331C2588.65 614.331 2577.21 565.738 2551.77 563.42C2526.33 561.105 2457.39 568.614 2448.34 579.555C2439.28 590.496 2429.28 638.47 2429.28 638.47C2429.28 638.47 2509.9 611.453 2588.65 614.331Z" fill="#383046"/>
<path fill-rule="evenodd" clip-rule="evenodd" d="M3598.11 1717.71C3598.11 1717.71 3586.22 1925.18 3619.18 1950.73C3644.53 1970.39 3757.67 1975.29 3788 1942.1V1716.61C3747.47 1702.83 3653.28 1677.6 3598.11 1717.71Z" fill="#383046"/>
<path fill-rule="evenodd" clip-rule="evenodd" d="M2724.79 1717.71C2724.79 1717.71 2712.91 1925.18 2745.86 1950.73C2773.83 1972.42 2908.64 1976.14 2921.24 1930.58C2933.84 1885.03 2934.17 1723.84 2934.17 1723.84C2934.17 1723.84 2796.51 1665.58 2724.79 1717.71Z" fill="#383046"/>
<path fill-rule="evenodd" clip-rule="evenodd" d="M2897.8 1827.84L2907.33 1848.22C2907.33 1848.22 3049.47 1736.13 3128.08 1733.59C3206.69 1731.04 3144.75 1757.36 3144.75 1757.36C3144.75 1757.36 2985.94 1800.67 2919.24 1866.06C2852.54 1931.44 2897.8 1827.84 2897.8 1827.84Z" fill="#383046"/>
<path fill-rule="evenodd" clip-rule="evenodd" d="M3632.39 1827.84L3622.86 1848.22C3622.86 1848.22 3480.73 1736.13 3402.12 1733.59C3323.51 1731.04 3385.44 1757.36 3385.44 1757.36C3385.44 1757.36 3544.25 1800.67 3610.95 1866.06C3677.65 1931.44 3632.39 1827.84 3632.39 1827.84Z" fill="#383046"/>
<path fill-rule="evenodd" clip-rule="evenodd" d="M3739.25 1264.71C3739.25 1264.71 3759.83 1221.89 3788 1212.08V1336.25H3774.42C3774.42 1336.25 3738.71 1311.68 3739.25 1264.71Z" fill="#B44556"/>
<path fill-rule="evenodd" clip-rule="evenodd" d="M2790.94 1264.71C2790.94 1264.71 2765.43 1211.6 2732.32 1210.12C2699.21 1208.65 2630.24 1210.12 2630.24 1210.12C2630.24 1210.12 2613 1210.86 2613 1239.63C2613 1268.4 2613 1314.13 2613 1314.13C2613 1314.13 2613 1336.25 2629.55 1336.25C2646.1 1336.25 2755.77 1336.25 2755.77 1336.25C2755.77 1336.25 2791.48 1311.68 2790.94 1264.71Z" fill="#B44556"/>
<path fill-rule="evenodd" clip-rule="evenodd" d="M2766.41 1296.03L2893.66 985.805C2893.66 985.805 2906.72 945.426 2973.3 941.527C3039.88 937.626 3253.3 888.856 3617.21 962.008C3617.21 962.008 3633.63 959.082 3655.52 1012.73C3677.41 1066.37 3765.88 1301.44 3765.88 1301.44C3765.88 1301.44 3776.07 1305.86 3788 1316.72V1788.28C3777.35 1792.31 3763.85 1794.99 3746.73 1795.27C3667.12 1796.56 2768.48 1792.69 2768.48 1792.69C2768.48 1792.69 2703.35 1786.23 2702.14 1721.74C2700.93 1657.24 2700.94 1378.36 2700.94 1378.36C2700.94 1363.94 2706.36 1304.43 2766.41 1296.03Z" fill="#CD5F59"/>
<path fill-rule="evenodd" clip-rule="evenodd" d="M2805.05 1296.18L2925.45 1006.48C2925.45 1006.48 2931.83 983.064 2964.67 978.189C2997.51 973.312 3295.42 926.018 3547.9 982.392C3547.9 982.392 3583.42 982.457 3601.52 1016C3619.61 1049.54 3722.15 1295.94 3722.15 1295.94C3722.15 1295.94 3284.26 1266.27 2805.05 1296.18Z" fill="white"/>
<path fill-rule="evenodd" clip-rule="evenodd" d="M3658.64 1145.08C3690.08 1218.87 3722.15 1295.94 3722.15 1295.94C3722.15 1295.94 3674.62 1292.72 3593.77 1289.47C3624.28 1239.69 3644.91 1190.62 3658.64 1145.08Z" fill="#A9CBFF"/>
<path fill-rule="evenodd" clip-rule="evenodd" d="M3024.24 970.039C3058.48 965.89 3104.89 961.164 3158.61 958.132C3116.59 1021.84 3051.17 1143.12 3046.77 1285.58C2986.85 1287.17 2925 1289.55 2862.17 1292.89C2932.03 1220.97 3023.2 1101.99 3024.24 970.039ZM3208.02 955.947C3121.12 1067.48 3090.92 1190.78 3082.15 1284.72C3124.29 1283.8 3165.35 1283.25 3205.03 1283C3217.05 1147.46 3274.69 1032.64 3324.93 955.968C3284.4 954.586 3245 954.773 3208.02 955.947Z" fill="#A9CBFF"/>
<path fill-rule="evenodd" clip-rule="evenodd" d="M2984.55 1590.57H3788V1804.31C3615.97 1806.55 2693.75 1800.23 2693.75 1800.23C2693.75 1800.23 2667.71 1801.92 2667.01 1735.52C2666.33 1669.13 2671.15 1628.55 2671.15 1628.55C2671.15 1628.55 2672.88 1588.33 2750.32 1590.37C2827.75 1592.4 2984.55 1590.57 2984.55 1590.57Z" fill="#B44556"/>
<path fill-rule="evenodd" clip-rule="evenodd" d="M2805.05 1296.18L2925.45 1006.48C2925.45 1006.48 2931.83 983.064 2964.67 978.189C2997.51 973.312 3295.42 926.018 3547.9 982.392C3547.9 982.392 3583.42 982.457 3601.52 1016C3619.61 1049.54 3722.15 1295.94 3722.15 1295.94C3722.15 1295.94 3715.57 1295.49 3703.22 1294.77C3676.07 1226.15 3610.3 1060.75 3596.25 1033.2C3578.44 998.291 3543.46 998.222 3543.46 998.222C3294.93 939.544 3001.66 988.77 2969.33 993.847C2937.01 998.922 2930.72 1023.29 2930.72 1023.29L2823.91 1295.04C2817.63 1295.41 2811.35 1295.79 2805.05 1296.18Z" fill="#131B35"/>
<path fill-rule="evenodd" clip-rule="evenodd" d="M2860.85 1649.48H3633.02C3633.02 1649.48 3706.37 1641.62 3709.23 1692.12C3712.09 1742.62 3648.27 1744.87 3648.27 1744.87H2861.42C2861.42 1744.87 2811.72 1745.85 2810.47 1697.89C2809.22 1649.93 2860.85 1649.48 2860.85 1649.48Z" fill="#21283E"/>
<path fill-rule="evenodd" clip-rule="evenodd" d="M3030.01 1441.7H3474.84C3474.84 1441.7 3517.09 1433.84 3518.74 1484.34C3520.39 1534.84 3483.62 1537.09 3483.62 1537.09H3030.34C3030.34 1537.09 3001.71 1538.07 3000.99 1490.11C3000.27 1442.15 3030.01 1441.7 3030.01 1441.7Z" fill="#21283E"/>
<path d="M2740.14 1743.53C2764.19 1743.53 2783.69 1722.68 2783.69 1696.95C2783.69 1671.23 2764.19 1650.37 2740.14 1650.37C2716.08 1650.37 2696.58 1671.23 2696.58 1696.95C2696.58 1722.68 2716.08 1743.53 2740.14 1743.53Z" fill="#21283E"/>
<path fill-rule="evenodd" clip-rule="evenodd" d="M3779.63 1650.37C3782.49 1650.37 3785.29 1650.67 3788 1651.23V1742.67C3785.29 1743.23 3782.49 1743.53 3779.63 1743.53C3755.57 1743.53 3736.08 1722.68 3736.08 1696.95C3736.08 1671.22 3755.58 1650.37 3779.63 1650.37Z" fill="#21283E"/>
<path d="M2886.06 1563.31C2934.04 1563.31 2972.93 1521.72 2972.93 1470.41C2972.93 1419.09 2934.04 1377.5 2886.06 1377.5C2838.08 1377.5 2799.18 1419.09 2799.18 1470.41C2799.18 1521.72 2838.08 1563.31 2886.06 1563.31Z" fill="#B44556"/>
<path fill-rule="evenodd" clip-rule="evenodd" d="M2873.37 1360.54C2919.59 1360.54 2957.06 1400.61 2957.06 1450.04C2957.06 1499.47 2919.59 1539.54 2873.37 1539.54C2827.14 1539.54 2789.67 1499.47 2789.67 1450.04C2789.67 1400.61 2827.14 1360.54 2873.37 1360.54Z" fill="white"/>
<path d="M3679.36 1563.31C3727.34 1563.31 3766.23 1521.72 3766.23 1470.41C3766.23 1419.09 3727.34 1377.5 3679.36 1377.5C3631.38 1377.5 3592.48 1419.09 3592.48 1470.41C3592.48 1521.72 3631.38 1563.31 3679.36 1563.31Z" fill="#B44556"/>
<path d="M3715.98 1513.34C3748.66 1478.39 3748.66 1421.72 3715.98 1386.77C3683.3 1351.81 3630.31 1351.81 3597.62 1386.77C3564.94 1421.72 3564.94 1478.39 3597.62 1513.34C3630.31 1548.29 3683.3 1548.29 3715.98 1513.34Z" fill="white"/>
<path fill-rule="evenodd" clip-rule="evenodd" d="M3582.3 1452.3C3583.41 1495.3 3616.35 1529.8 3656.83 1529.8C3698.01 1529.8 3731.38 1494.11 3731.38 1450.07C3731.38 1408.84 3702.13 1374.93 3664.62 1370.77C3689.2 1380.08 3706.8 1405.15 3706.8 1434.63C3706.8 1472.04 3678.44 1502.36 3643.46 1502.36C3614.2 1502.36 3589.57 1481.14 3582.3 1452.3Z" fill="#A9CBFF"/>
<path fill-rule="evenodd" clip-rule="evenodd" d="M2797.28 1452.3C2798.39 1495.3 2831.32 1529.8 2871.81 1529.8C2912.98 1529.8 2946.36 1494.11 2946.36 1450.07C2946.36 1408.84 2917.11 1374.93 2879.6 1370.77C2904.17 1380.08 2921.78 1405.15 2921.78 1434.63C2921.78 1472.04 2893.42 1502.36 2858.44 1502.36C2829.17 1502.36 2804.55 1481.14 2797.28 1452.3Z" fill="#A9CBFF"/>
<path fill-rule="evenodd" clip-rule="evenodd" d="M2960.48 1296.82C3072.41 1294.74 3444.09 1277.83 3539.75 1301.4C3562.19 1306.93 3570.62 1324.08 3559.13 1343.95C3528.7 1396.59 3510.94 1433.35 3444.25 1431.65C3377.55 1429.95 3034.52 1429.79 3003.55 1427.25C2972.59 1424.7 2908.33 1298.05 2960.48 1296.82Z" fill="#D77E78"/>
<path fill-rule="evenodd" clip-rule="evenodd" d="M3788 1885.78V2131H1437.04C2018.09 1811.28 3133.78 1836.73 3788 1885.78Z" fill="#316AAC"/>
<path fill-rule="evenodd" clip-rule="evenodd" d="M2393.5 437.799C2393.5 437.799 2353.54 230.21 2299.15 236.87C2244.76 243.532 2189.26 286.824 2190.37 300.145C2191.48 313.467 2322.46 455.56 2345.77 455.56C2369.08 455.56 2393.5 437.799 2393.5 437.799Z" fill="white"/>
<path fill-rule="evenodd" clip-rule="evenodd" d="M2478.21 425.256C2478.21 425.256 2528.84 264.478 2488.16 248.534C2447.48 232.59 2393.54 258.961 2389.27 268.728C2385.01 278.495 2421.64 410.789 2437.99 419.626C2454.34 428.461 2478.21 425.256 2478.21 425.256Z" fill="white"/>
<path fill-rule="evenodd" clip-rule="evenodd" d="M3558.73 398.994C3558.73 398.994 3700.32 307.545 3679.18 269.305C3658.03 231.065 3599.68 216.936 3590.16 221.731C3580.65 226.522 3524.42 351.751 3531.37 368.992C3538.31 386.229 3558.73 398.994 3558.73 398.994Z" fill="white"/>
<path fill-rule="evenodd" clip-rule="evenodd" d="M1318.93 306.272C1318.93 306.272 1233.17 346.021 1204.38 417.833C1204.38 417.833 1165.92 372.401 1066.22 386.75C1066.22 386.75 1125.34 332.874 1191.58 368.761C1191.58 368.761 1202.49 321.935 1318.93 306.272Z" fill="#78AEFF"/>
<path fill-rule="evenodd" clip-rule="evenodd" d="M3287.11 329.325C3287.11 329.325 3214.75 333.022 3173.72 375.834C3173.72 375.834 3159.38 332.513 3084.39 314.16C3084.39 314.16 3141.85 292.788 3178.68 337.278C3178.68 337.278 3199.84 307.11 3287.11 329.325Z" fill="#78AEFF"/>
<path fill-rule="evenodd" clip-rule="evenodd" d="M1031.31 223.089C1031.31 223.089 979.908 235.292 956.127 271.409C956.127 271.409 940.131 242.233 883.927 238.968C883.927 238.968 922.316 216.057 954.594 243.106C954.594 243.106 965.795 218.673 1031.31 223.089Z" fill="#78AEFF"/>
<path fill-rule="evenodd" clip-rule="evenodd" d="M136.457 161.065H277.406L307.462 289.582H166.512L136.457 161.065Z" fill="white"/>
<path fill-rule="evenodd" clip-rule="evenodd" d="M0 161.065H44.5859L74.6443 289.582H0V161.065Z" fill="white"/>
<path fill-rule="evenodd" clip-rule="evenodd" d="M369.277 161.065H510.226L540.281 289.582H399.332L369.277 161.065Z" fill="white"/>
<path fill-rule="evenodd" clip-rule="evenodd" d="M602.097 161.065H743.046L773.101 289.582H632.152L602.097 161.065Z" fill="white"/>
</g>
<defs>
<clipPath id="clip0_44_11260">
<rect width="3788" height="2131" fill="white"/>
</clipPath>
</defs>
</svg>
